<svg xmlns="http://www.w3.org/2000/svg" viewBox="0 0 1271.81 1498.54"><defs><style>.cls-1{fill:#414042;}.cls-1,.cls-2,.cls-3,.cls-4,.cls-5,.cls-6{fill-rule:evenodd;}.cls-2{fill:#231f20;}.cls-3,.cls-7{fill:#fff;}.cls-4{fill:#00b698;}.cls-5{fill:#a7a9ac;}.cls-6{fill:#e6e7e8;}.cls-7{font-size:66.94px;font-family:ArialMT, Arial;}.cls-8{letter-spacing:0.59em;}.cls-9{letter-spacing:0em;}</style></defs><g id="Layer_2" data-name="Layer 2"><g id="Layer_1-2" data-name="Layer 1"><path class="cls-1" d="M637.26,1236c-103.49-23-193.13-81.92-266.42-157.28C260.26,965,203.81,775.82,199,617.28l-14-462.54q452.2-309.48,904.39,0l-14,462.54c-4.79,158.54-61.23,347.73-171.81,461.44C830.39,1154.08,740.74,1213,637.26,1236Z"/><path class="cls-2" d="M637.26,0q226.1,0,452.19,154.74l-14,462.54c-4.79,158.54-61.23,347.73-171.81,461.44C830.39,1154.09,740.74,1213,637.26,1236Z"/><path class="cls-3" d="M637.26,1203.86c94.58-22.73,176.67-77.77,244-147,105.76-108.76,158.46-291.66,163-440.56l13.44-445.26c-281.24-186.32-559.5-186.32-840.75,0l13.45,445.26c4.49,148.9,57.2,331.8,163,440.56,67.3,69.2,149.39,124.24,244,147Zm0-21.61c-88.63-22.51-165.67-74.93-228.93-140-102-104.9-152.71-283.11-157-426.57L238.2,182.18C505.8,9,768.72,9,1036.31,182.18L1023.22,615.7c-4.33,143.46-55,321.67-157,426.57C802.93,1107.32,725.89,1159.74,637.26,1182.25Z"/><polygon class="cls-4" points="621.75 968.21 602.47 946.02 602.1 945.59 601.74 945.15 601.39 944.7 601.05 944.25 600.72 943.78 600.39 943.31 600.08 942.83 599.77 942.34 599.48 941.84 599.19 941.34 598.92 940.83 598.66 940.31 598.4 939.79 598.16 939.26 597.93 938.73 597.71 938.19 597.5 937.64 597.31 937.1 597.13 936.54 596.95 935.99 596.79 935.43 596.65 934.87 596.51 934.31 596.39 933.75 596.28 933.18 596.18 932.61 596.09 932.05 596.02 931.48 595.96 930.91 595.91 930.34 595.87 929.78 595.85 929.21 582.82 488.33 582.71 486.02 582.53 483.71 582.26 481.41 581.92 479.12 581.5 476.85 581 474.59 580.42 472.35 579.77 470.13 579.04 467.94 578.24 465.76 577.36 463.63 576.41 461.51 575.39 459.44 574.3 457.4 573.14 455.4 571.91 453.44 570.62 451.52 479.04 320.73 478.65 320.16 478.29 319.58 477.94 318.99 477.62 318.38 477.31 317.77 477.03 317.14 476.77 316.51 476.53 315.87 476.31 315.21 476.12 314.56 475.94 313.89 475.79 313.22 475.66 312.55 475.56 311.87 475.48 311.19 475.42 310.51 474.84 302.31 459.54 280.46 466.08 373.97 466.24 375.78 466.45 377.57 466.73 379.36 467.07 381.14 467.46 382.91 467.92 384.66 468.43 386.4 469 388.12 469.63 389.81 470.31 391.49 471.05 393.14 471.85 394.77 550.45 549.04 551.8 551.79 553.05 554.57 554.21 557.39 555.28 560.25 556.26 563.14 557.14 566.06 557.93 569.01 558.63 571.98 559.23 574.97 559.73 577.98 560.13 581.01 560.44 584.04 560.65 587.09 578.51 927.9 578.57 928.8 578.66 929.69 578.78 930.58 578.93 931.46 579.11 932.34 579.32 933.22 579.56 934.08 579.83 934.94 580.12 935.79 580.44 936.62 580.79 937.45 581.17 938.26 581.57 939.07 582 939.85 582.46 940.63 582.94 941.38 583.45 942.12 583.98 942.85 584.53 943.55 585.11 944.24 622.42 987.16 621.75 968.21"/><polygon class="cls-4" points="660.89 968.21 680.18 946.02 680.55 945.59 680.91 945.15 681.26 944.7 681.6 944.25 681.93 943.78 682.26 943.31 682.57 942.83 682.88 942.34 683.17 941.84 683.46 941.34 683.73 940.83 683.99 940.31 684.25 939.79 684.49 939.26 684.72 938.73 684.94 938.19 685.14 937.64 685.34 937.1 685.52 936.54 685.69 935.99 685.85 935.43 686 934.87 686.14 934.31 686.26 933.75 686.37 933.18 686.47 932.61 686.55 932.05 686.63 931.48 686.69 930.91 686.74 930.34 686.78 929.78 686.8 929.21 699.83 488.33 699.93 486.02 700.12 483.71 700.39 481.41 700.73 479.12 701.15 476.85 701.65 474.59 702.23 472.35 702.88 470.13 703.61 467.94 704.41 465.76 705.29 463.63 706.24 461.51 707.26 459.44 708.35 457.4 709.51 455.4 710.74 453.44 712.03 451.52 803.61 320.73 804 320.16 804.36 319.58 804.71 318.99 805.03 318.38 805.33 317.77 805.62 317.14 805.88 316.51 806.12 315.87 806.34 315.21 806.53 314.56 806.71 313.89 806.86 313.22 806.99 312.55 807.09 311.87 807.17 311.19 807.23 310.51 807.81 302.31 823.11 280.46 816.57 373.97 816.41 375.78 816.2 377.57 815.92 379.36 815.58 381.14 815.19 382.91 814.73 384.66 814.22 386.4 813.65 388.12 813.02 389.81 812.34 391.49 811.6 393.14 810.8 394.77 732.19 549.04 730.85 551.79 729.6 554.57 728.44 557.39 727.37 560.25 726.39 563.14 725.5 566.06 724.72 569.01 724.02 571.98 723.42 574.97 722.92 577.98 722.51 581.01 722.21 584.04 722 587.09 704.14 927.9 704.08 928.8 703.99 929.69 703.87 930.58 703.71 931.46 703.53 932.34 703.33 933.22 703.09 934.08 702.82 934.94 702.53 935.79 702.21 936.62 701.86 937.45 701.48 938.26 701.08 939.07 700.64 939.85 700.19 940.63 699.71 941.38 699.2 942.12 698.67 942.85 698.12 943.55 697.54 944.24 660.23 987.16 660.89 968.21"/><polygon class="cls-5" points="438.37 683.92 413.15 629.83 411.76 626.72 410.48 623.56 409.3 620.37 408.23 617.13 407.27 613.86 406.43 610.56 405.69 607.24 405.06 603.89 404.55 600.52 404.15 597.14 403.87 593.75 403.7 590.35 403.64 586.94 403.64 326.19 449.37 280.46 455.91 373.99 456.1 376.25 456.38 378.5 456.72 380.73 457.14 382.95 457.64 385.16 458.2 387.35 458.85 389.52 459.56 391.67 460.34 393.8 461.2 395.89 462.12 397.96 463.12 399.99 541.74 554.29 542.89 556.64 543.96 559.03 544.96 561.45 545.88 563.89 546.71 566.37 547.47 568.88 548.15 571.4 548.75 573.95 549.26 576.52 549.69 579.1 550.03 581.69 550.3 584.29 550.48 586.9 568.44 929.6 568.51 930.72 568.63 931.83 568.78 932.94 568.97 934.05 569.19 935.15 569.45 936.24 569.75 937.32 570.08 938.39 570.45 939.45 570.85 940.5 571.29 941.53 571.76 942.55 572.27 943.55 572.8 944.53 573.38 945.5 573.98 946.45 574.61 947.37 575.27 948.28 575.97 949.16 576.69 950.02 622.98 1003.27 626.68 1109.25 534.89 1051.89 531 1049.36 527.2 1046.71 523.49 1043.92 519.88 1041.02 516.38 1037.98 512.97 1034.84 509.68 1031.57 506.5 1028.2 503.44 1024.71 500.5 1021.13 497.69 1017.45 495 1013.67 492.45 1009.8 490.03 1005.85 487.74 1001.82 485.6 997.71 483.59 993.53 481.73 989.28 480.02 984.98 478.45 980.61 477.04 976.2 475.78 971.74 474.67 967.24 473.72 962.7 472.92 958.13 472.28 953.54 471.8 948.93 453.57 740.66 453.02 735.32 452.3 730 451.41 724.71 450.35 719.45 449.13 714.22 447.74 709.04 446.19 703.9 444.47 698.82 442.6 693.79 440.56 688.82 438.37 683.92"/><polygon class="cls-5" points="844.28 683.92 869.5 629.83 870.89 626.72 872.17 623.56 873.35 620.37 874.41 617.13 875.37 613.86 876.22 610.56 876.96 607.24 877.58 603.89 878.1 600.52 878.5 597.14 878.78 593.75 878.95 590.35 879.01 586.94 879.01 326.19 833.28 280.46 826.74 373.99 826.54 376.25 826.27 378.5 825.93 380.73 825.51 382.95 825.01 385.16 824.44 387.35 823.8 389.52 823.09 391.67 822.3 393.8 821.45 395.89 820.52 397.96 819.53 399.99 740.91 554.29 739.76 556.64 738.69 559.03 737.69 561.45 736.77 563.89 735.93 566.37 735.18 568.88 734.5 571.4 733.9 573.95 733.39 576.52 732.96 579.1 732.61 581.69 732.35 584.29 732.17 586.9 714.21 929.6 714.13 930.72 714.02 931.83 713.87 932.94 713.68 934.05 713.46 935.15 713.2 936.24 712.9 937.32 712.57 938.39 712.2 939.45 711.79 940.5 711.36 941.53 710.89 942.55 710.38 943.55 709.84 944.53 709.27 945.5 708.67 946.45 708.04 947.37 707.38 948.28 706.68 949.16 705.96 950.02 659.67 1003.27 655.97 1109.25 747.76 1051.89 751.65 1049.36 755.45 1046.71 759.16 1043.92 762.77 1041.02 766.27 1037.98 769.67 1034.84 772.97 1031.57 776.14 1028.2 779.2 1024.71 782.14 1021.13 784.96 1017.45 787.64 1013.67 790.2 1009.8 792.62 1005.85 794.91 1001.82 797.05 997.71 799.06 993.53 800.92 989.28 802.63 984.98 804.19 980.61 805.61 976.2 806.87 971.74 807.98 967.24 808.93 962.7 809.73 958.13 810.37 953.54 810.85 948.93 829.07 740.66 829.63 735.32 830.35 730 831.24 724.71 832.3 719.45 833.52 714.22 834.91 709.04 836.46 703.9 838.18 698.82 840.05 693.79 842.09 688.82 844.28 683.92"/><polygon class="cls-6" points="407.02 326.19 436.91 296.3 442.41 374.94 442.65 377.64 442.97 380.34 443.39 383.02 443.89 385.69 444.48 388.34 445.17 390.97 445.94 393.57 446.79 396.15 447.73 398.7 448.76 401.21 449.87 403.69 451.06 406.13 529.68 560.44 530.64 562.39 531.54 564.38 532.37 566.4 533.13 568.44 533.83 570.5 534.46 572.59 535.02 574.69 535.52 576.82 535.95 578.96 536.31 581.11 536.6 583.26 536.82 585.43 536.96 587.61 554.68 925.57 554.77 926.91 554.91 928.25 555.09 929.58 555.31 930.91 555.58 932.23 555.9 933.54 556.25 934.84 556.65 936.12 557.09 937.39 557.58 938.65 558.1 939.89 558.67 941.11 559.27 942.31 559.92 943.49 560.6 944.65 561.32 945.79 562.08 946.9 562.88 947.99 563.71 949.04 564.58 950.08 616.44 1009.73 619.19 1088.64 552.17 1046.76 549.45 1044.99 546.79 1043.13 544.19 1041.18 541.67 1039.15 539.21 1037.03 536.83 1034.82 534.53 1032.54 532.3 1030.17 530.16 1027.74 528.1 1025.23 526.13 1022.65 524.25 1020.01 522.46 1017.3 520.77 1014.53 519.17 1011.71 517.66 1008.83 516.26 1005.91 514.96 1002.93 513.76 999.92 512.67 996.87 511.68 993.77 510.79 990.65 510.02 987.5 509.35 984.33 508.79 981.13 508.34 977.92 508 974.69 492.92 802.27 492.52 798.43 492 794.6 491.36 790.79 490.6 787 489.72 783.24 488.72 779.5 487.6 775.81 486.37 772.14 485.02 768.52 483.55 764.95 481.98 761.42 415.89 619.71 414.6 616.81 413.4 613.87 412.31 610.88 411.31 607.86 410.42 604.81 409.62 601.73 408.94 598.63 408.35 595.51 407.87 592.36 407.5 589.21 407.24 586.04 407.07 582.86 407.02 579.68 407.02 326.19"/><polygon class="cls-6" points="875.63 326.19 845.74 296.3 840.24 374.94 840 377.64 839.68 380.34 839.26 383.02 838.76 385.69 838.16 388.34 837.48 390.97 836.71 393.57 835.86 396.15 834.91 398.7 833.89 401.21 832.78 403.69 831.59 406.13 752.97 560.44 752.01 562.39 751.11 564.38 750.28 566.4 749.52 568.44 748.82 570.5 748.19 572.59 747.62 574.69 747.13 576.82 746.7 578.96 746.34 581.11 746.05 583.26 745.83 585.43 745.68 587.61 727.97 925.57 727.88 926.91 727.74 928.25 727.56 929.58 727.34 930.91 727.07 932.23 726.75 933.54 726.4 934.84 726 936.12 725.56 937.39 725.07 938.65 724.55 939.89 723.98 941.11 723.38 942.31 722.73 943.49 722.05 944.65 721.32 945.79 720.57 946.9 719.77 947.99 718.94 949.04 718.07 950.08 666.21 1009.73 663.46 1088.64 730.48 1046.76 733.2 1044.99 735.86 1043.13 738.46 1041.18 740.98 1039.15 743.44 1037.03 745.82 1034.82 748.12 1032.54 750.35 1030.17 752.49 1027.74 754.55 1025.23 756.52 1022.65 758.4 1020.01 760.19 1017.3 761.88 1014.53 763.48 1011.71 764.98 1008.83 766.39 1005.91 767.69 1002.93 768.89 999.92 769.98 996.87 770.97 993.77 771.86 990.65 772.63 987.5 773.3 984.33 773.86 981.13 774.3 977.92 774.64 974.69 789.73 802.27 790.13 798.43 790.65 794.6 791.29 790.79 792.05 787 792.93 783.24 793.93 779.5 795.05 775.81 796.28 772.14 797.63 768.52 799.1 764.95 800.67 761.42 866.75 619.71 868.05 616.81 869.25 613.87 870.34 610.88 871.34 607.86 872.23 604.81 873.03 601.73 873.71 598.63 874.3 595.51 874.77 592.36 875.15 589.21 875.41 586.04 875.57 582.86 875.63 579.68 875.63 326.19"/><path class="cls-3" d="M920.34,168.34,914.81,181a10.59,10.59,0,0,1-6.11,5.81,10.71,10.71,0,0,1-8.44-.17l-.25-.1a.11.11,0,0,0-.12,0,.11.11,0,0,0,0,.12l5.06,16.88a.11.11,0,0,1,0,.08l-1.51,3.47a.13.13,0,0,1-.16.06l-10.74-4.7a.11.11,0,0,1-.06-.07l-6.47-22a.12.12,0,0,0-.06-.08l-13.74-5.92a.09.09,0,0,0-.1,0,.1.1,0,0,0-.06.09,1,1,0,0,1-.08.28l-.08,0a.12.12,0,0,0-.1,0,.12.12,0,0,0-.07.07l-6.75,15.45a.12.12,0,0,1-.16.06l-10.34-4.52a.11.11,0,0,1-.06-.15l21.3-48.74a.12.12,0,0,1,.16-.06l38.77,16.94a10.69,10.69,0,0,1,5.85,6.09,10.52,10.52,0,0,1-.11,8.43Zm-38.73-16.23-5,11.42a.12.12,0,0,0,.06.16l27.57,12.05a.12.12,0,0,0,.15-.07l5-11.42a.12.12,0,0,0-.06-.16l-27.56-12a.12.12,0,0,0-.16.06Zm-56.92-33.87a10.92,10.92,0,0,0-14.06,6.67l-10.58,29.67a10.89,10.89,0,0,0,6.66,14l29.67,10.59a11,11,0,0,0,14.06-6.66L861,142.89a11,11,0,0,0-6.66-14.06l-29.67-10.59Zm-3.45,11.21a.11.11,0,0,1,.15-.07l28.34,10.11a.11.11,0,0,1,.07.15L839.69,168a.12.12,0,0,1-.15.07L811.2,157.93a.12.12,0,0,1-.07-.15l10.11-28.33Zm-70.12-29.6L803,112a.12.12,0,0,1,.09.14l-2.6,11a.11.11,0,0,1-.14.09l-20.17-4.73a.12.12,0,0,0-.14.09l-9.52,40.57a.12.12,0,0,1-.14.09l-11.06-2.6a.12.12,0,0,1-.09-.14L768.73,116a.11.11,0,0,0-.09-.14l-20.17-4.73a.13.13,0,0,1-.09-.14L751,99.94a.12.12,0,0,1,.14-.09Zm-52.66-7.33,31.22,4.29a11,11,0,0,1,9.39,12.4l-4.29,31.21a11,11,0,0,1-12.39,9.4l-31.21-4.3a10.89,10.89,0,0,1-9.4-12.39l4.29-31.21a10.91,10.91,0,0,1,12.39-9.4Zm-1.08,11.67L693.29,134a.11.11,0,0,0,.1.13l29.8,4.1a.13.13,0,0,0,.13-.1l4.1-29.81a.12.12,0,0,0-.1-.13l-29.8-4.1a.12.12,0,0,0-.14.1Zm-55,6.72,18.47-21a.12.12,0,0,1,.09,0l11.79.3a.12.12,0,0,1,.12.12l-1.36,53.25a.12.12,0,0,1-.12.11L660,143.35a.11.11,0,0,1-.11-.12l.9-35.43a.1.1,0,0,0-.07-.12.12.12,0,0,0-.13,0L641.9,128.88a.08.08,0,0,1-.09,0,.1.1,0,0,1-.09,0l-17.65-22a.11.11,0,0,0-.13,0,.12.12,0,0,0-.08.11l-.9,35.36a.12.12,0,0,1-.12.12l-11.28-.29a.12.12,0,0,1-.11-.12l1.36-53.25a.12.12,0,0,1,.12-.12l11.71.3a.12.12,0,0,1,.09,0l17.45,21.92a.11.11,0,0,0,.09,0,.13.13,0,0,0,.09,0Zm-77.45,18.53-5.39-34.81a.12.12,0,0,1,.1-.13l11.3-1.75a.11.11,0,0,1,.13.1l8.15,52.64a.11.11,0,0,1-.1.13l-11.57,1.79a.12.12,0,0,1-.1,0l-34.94-30.55a.12.12,0,0,0-.13,0,.11.11,0,0,0-.06.12l5.41,35a.11.11,0,0,1-.1.13l-11.15,1.73a.11.11,0,0,1-.13-.1L518.18,101a.12.12,0,0,1,.1-.13l11.58-1.79a.1.1,0,0,1,.09,0l34.77,30.42a.13.13,0,0,0,.13,0,.12.12,0,0,0,.06-.13ZM463.55,114.85,494,107a11,11,0,0,1,13.48,7.87l10.63,41a.11.11,0,0,1-.09.14l-11.06,2.87a.11.11,0,0,1-.14-.08l-4.27-16.46a.12.12,0,0,0-.14-.09l-29.12,7.55a.12.12,0,0,0-.09.14l4.27,16.46a.13.13,0,0,1-.09.15l-10.92,2.83a.12.12,0,0,1-.14-.09l-10.63-41a10.9,10.9,0,0,1,7.88-13.4Zm6.81,23.72L499.48,131a.11.11,0,0,0,.08-.14l-3.22-12.43a.11.11,0,0,0-.14-.09l-29.12,7.55a.12.12,0,0,0-.09.14l3.23,12.43a.12.12,0,0,0,.14.09ZM339.55,163.64l28.37-13.71a11,11,0,0,1,14.69,5.12l13.71,28.37a11,11,0,0,1-5.12,14.68l-28.37,13.71a10.91,10.91,0,0,1-14.69-5.12l-13.7-28.37a10.9,10.9,0,0,1,5.11-14.68ZM345.12,174,358.2,201a.12.12,0,0,0,.16.05L385.45,188a.12.12,0,0,0,.05-.16l-13.08-27.09a.13.13,0,0,0-.16,0L345.17,173.8a.11.11,0,0,0-.05.15Zm594.63,4.59a.12.12,0,0,1,.16,0l37,19.31a.12.12,0,0,0,.16-.05l5.25-10.07a.12.12,0,0,0-.05-.16l-37.58-19.6a10.64,10.64,0,0,0-8.36-.76,10.53,10.53,0,0,0-6.47,5.42L925,181.94a11,11,0,0,0,4.66,14.84L956.89,211a.12.12,0,0,1,.05.16l-4.22,8.09a.12.12,0,0,1-.16.05l-36.87-19.22a.11.11,0,0,0-.15,0c-.54.94-4.4,8.55-5.2,10.11a.11.11,0,0,0,0,.15l37.51,19.56a11,11,0,0,0,14.84-4.66l4.87-9.36A11,11,0,0,0,963,201.07l-27.37-14.28a.12.12,0,0,1-.05-.16l4.22-8.09ZM405.35,148.4a.12.12,0,0,1,.07-.15l38.92-15.1a.14.14,0,0,0,.07-.16l-4.11-10.58a.14.14,0,0,0-.16-.07l-39.51,15.33a11,11,0,0,0-6.27,14.24l3.82,9.83A10.95,10.95,0,0,0,412.41,168l28.64-11.11a.11.11,0,0,1,.15.06l3.3,8.51a.11.11,0,0,1-.07.15l-38.76,15a.12.12,0,0,0-.07.15c.35,1,3.53,9,4.17,10.57a.14.14,0,0,0,.16.07l39.43-15.32a11,11,0,0,0,6.28-14.23l-3.82-9.83a11.06,11.06,0,0,0-14.24-6.28L408.81,157a.12.12,0,0,1-.15-.07l-3.31-8.51ZM275.37,198,322,172.16a.11.11,0,0,1,.16,0l5.51,9.93a.12.12,0,0,1-.05.16l-18.12,10.05a.11.11,0,0,0,0,.16L329.62,229a.12.12,0,0,1-.05.16l-9.93,5.5a.12.12,0,0,1-.16,0l-20.2-36.45a.12.12,0,0,0-.16-.05l-18.13,10a.12.12,0,0,1-.16,0l-5.5-9.94A.11.11,0,0,1,275.37,198Z"/><path class="cls-3" d="M64.36,1335v63H44.92v-63H5.24v-19.79h98.69V1335Zm128,63H131.72a17.93,17.93,0,0,1-6-1.2,19.72,19.72,0,0,1-6.22-3.73,21.39,21.39,0,0,1-4.84-6.29,19.62,19.62,0,0,1-2-9.07v-42.15a19.62,19.62,0,0,1,2-9.07,21.56,21.56,0,0,1,4.84-6.3,19.88,19.88,0,0,1,6.22-3.72,17.94,17.94,0,0,1,6-1.21h60.64a17.61,17.61,0,0,1,6,1.21,20.53,20.53,0,0,1,6.19,3.71,20.8,20.8,0,0,1,4.91,6.31,19.5,19.5,0,0,1,2,9.07v42.15a19.5,19.5,0,0,1-2,9.07,20.64,20.64,0,0,1-4.91,6.3,20.33,20.33,0,0,1-6.19,3.71,17.61,17.61,0,0,1-6,1.21Zm101-32.76H239.3a17.75,17.75,0,0,1-6-1.21,19.64,19.64,0,0,1-6.21-3.72,21.27,21.27,0,0,1-4.84-6.3,19.47,19.47,0,0,1-2-9.07v-9.38a19.5,19.5,0,0,1,2-9.07,21.39,21.39,0,0,1,4.84-6.3,19.83,19.83,0,0,1,6.21-3.72,18,18,0,0,1,6-1.21H319V1335h-73.1a6.07,6.07,0,0,0-1.31.36,9.37,9.37,0,0,0-2.16,1.16,9.2,9.2,0,0,0-1.92,1.87,2.94,2.94,0,0,0-.64,1.84,3.62,3.62,0,0,0,.75,2,7.61,7.61,0,0,0,1.86,1.72,11.35,11.35,0,0,0,2.19,1.13,5.45,5.45,0,0,0,1.22.35h54.08a17.75,17.75,0,0,1,6,1.21,18.81,18.81,0,0,1,6.24,3.84,22.68,22.68,0,0,1,4.81,6.36,19.13,19.13,0,0,1,2,8.88v12a19.5,19.5,0,0,1-2,9.07,21.22,21.22,0,0,1-4.84,6.29,19.67,19.67,0,0,1-6.21,3.73,18,18,0,0,1-6,1.2H220.27v-19.78h73.09a5.51,5.51,0,0,0,1.22-.42,9.07,9.07,0,0,0,2.22-1.41,9.32,9.32,0,0,0,2-2.26,4.88,4.88,0,0,0,.73-2.68v-.74a3.53,3.53,0,0,0-.61-2.12,7.06,7.06,0,0,0-1.74-1.71,9.63,9.63,0,0,0-2.14-1.1c-.54-.19-1.09-.39-1.65-.54ZM407.09,1372H348.56v-19.6h58.53v-10.63a4.83,4.83,0,0,0-.73-2.68,9.79,9.79,0,0,0-4.21-3.68,5.49,5.49,0,0,0-1.2-.41H353.33a6.24,6.24,0,0,0-1.31.42,8.24,8.24,0,0,0-2.17,1.38,10.17,10.17,0,0,0-2,2.29,4.83,4.83,0,0,0-.73,2.68v56.18H327.73v-62.44a19.62,19.62,0,0,1,2-9.07,21.56,21.56,0,0,1,4.84-6.3,19.88,19.88,0,0,1,6.22-3.72,17.94,17.94,0,0,1,6-1.21h60.64a17.56,17.56,0,0,1,6,1.21,20.53,20.53,0,0,1,6.19,3.71,21,21,0,0,1,4.92,6.31,19.62,19.62,0,0,1,2,9.07v62.44H407.09v-26Zm47.65-34.93v60.88H435.3v-69.07c0-3.13.23-7.85,2.14-10.48a6.86,6.86,0,0,1,5.53-3.19h14.64a6.65,6.65,0,0,1,3.09,1,28.13,28.13,0,0,1,2.81,1.76A24.2,24.2,0,0,1,466,1320a22.9,22.9,0,0,1,1.61,1.66l51.46,54.43v-60.89h19.44v69.08c0,3.13-.22,7.85-2.14,10.48a6.86,6.86,0,0,1-5.53,3.18H516.13a5.94,5.94,0,0,1-2.71-1c-.95-.54-1.87-1.11-2.78-1.71a31.15,31.15,0,0,1-2.79-2,10.45,10.45,0,0,1-1.83-1.81l-51.28-54.36Zm211.58,33a1.31,1.31,0,0,0,.12-.15c.74-.92,1.44-1.88,2.12-2.83,2.45-3.41,4.83-6.88,7.17-10.36q4.47-6.65,9-13.26t9.15-13.28c2.44-3.47,4.93-6.93,7.54-10.28,1.06-1.37,3.5-4.71,5.44-4.71h14.86a6.94,6.94,0,0,1,5.65,3.19c1.92,2.63,2.14,7.35,2.14,10.48v69.07H710v-59.82L672.71,1395l-.06.08a11.8,11.8,0,0,1-1.89,1.85,5.91,5.91,0,0,1-2.47.91,1.94,1.94,0,0,1-.92.24h-3.93v-.36a4.48,4.48,0,0,1-1.58-.7,9.53,9.53,0,0,1-1.94-2l0,0-37.29-56.72v59.65H603.16v-69.07c0-3.13.22-7.85,2.14-10.48a6.84,6.84,0,0,1,5.53-3.19H625.7c1.92,0,4.41,3.34,5.48,4.7,2.63,3.3,5.12,6.75,7.56,10.2q4.63,6.6,9.14,13.28t9.07,13.34c2.37,3.47,4.76,6.94,7.18,10.38.68,1,1.36,1.91,2.08,2.83l.11.14Zm151.58,27.87H757.27a18,18,0,0,1-6-1.2,19.67,19.67,0,0,1-6.21-3.73,21.22,21.22,0,0,1-4.84-6.29,19.5,19.5,0,0,1-2-9.07v-42.15a19.5,19.5,0,0,1,2-9.07,21.39,21.39,0,0,1,4.84-6.3,19.83,19.83,0,0,1,6.21-3.72,18,18,0,0,1,6-1.21H817.9a17.56,17.56,0,0,1,6,1.21,20.58,20.58,0,0,1,6.2,3.71,21,21,0,0,1,4.91,6.31,19.62,19.62,0,0,1,2,9.07v42.15a19.62,19.62,0,0,1-2,9.07,20.79,20.79,0,0,1-4.91,6.3,20.37,20.37,0,0,1-6.2,3.71,17.56,17.56,0,0,1-6,1.21Zm87-63v63H885.5v-63H845.82v-19.79H944.5V1335Zm128,63H972.3a18,18,0,0,1-6-1.2,19.67,19.67,0,0,1-6.21-3.73,21.22,21.22,0,0,1-4.84-6.29,19.5,19.5,0,0,1-2-9.07v-42.15a19.5,19.5,0,0,1,2-9.07,21.39,21.39,0,0,1,4.84-6.3,19.83,19.83,0,0,1,6.21-3.72,18,18,0,0,1,6-1.21h60.63a17.61,17.61,0,0,1,6,1.21,20.65,20.65,0,0,1,6.19,3.71,21,21,0,0,1,4.91,6.31,19.62,19.62,0,0,1,2,9.07v42.15a19.62,19.62,0,0,1-2,9.07,20.79,20.79,0,0,1-4.91,6.3,20.45,20.45,0,0,1-6.19,3.71,17.61,17.61,0,0,1-6,1.21Zm101-63h-53.63c0,.26,0,.54,0,.69v62.26h-19.43v-69.07c0-3.13.22-7.85,2.14-10.48a6.84,6.84,0,0,1,5.53-3.19h72a17.94,17.94,0,0,1,6,1.21,19.88,19.88,0,0,1,6.22,3.72,21.56,21.56,0,0,1,4.84,6.3,19.62,19.62,0,0,1,2,9.07v16.38a19.62,19.62,0,0,1-2,9.07,21.39,21.39,0,0,1-4.84,6.29,19.72,19.72,0,0,1-6.22,3.73,17.93,17.93,0,0,1-6,1.2h-2.72l24.47,25.77H1137l-24.7-25.77h-30.59v-19.78h52.25a5.87,5.87,0,0,0,1.22-.42,9,9,0,0,0,2.23-1.41,9.5,9.5,0,0,0,2-2.26,4.88,4.88,0,0,0,.73-2.68v-3.86a4.37,4.37,0,0,0-.67-2.41,10.7,10.7,0,0,0-1.86-2.22,10,10,0,0,0-2.15-1.49,10.89,10.89,0,0,0-1.47-.65Zm107.48,30.19h-54.09a17.75,17.75,0,0,1-6-1.21,19.64,19.64,0,0,1-6.21-3.72,21.27,21.27,0,0,1-4.84-6.3,19.47,19.47,0,0,1-2-9.07v-9.38a19.5,19.5,0,0,1,2-9.07,21.39,21.39,0,0,1,4.84-6.3,19.83,19.83,0,0,1,6.21-3.72,18,18,0,0,1,6-1.21H1267V1335h-73.1a6.07,6.07,0,0,0-1.31.36,9.37,9.37,0,0,0-2.16,1.16,9.2,9.2,0,0,0-1.92,1.87,2.94,2.94,0,0,0-.64,1.84,3.56,3.56,0,0,0,.76,2,7.39,7.39,0,0,0,1.85,1.72,11.43,11.43,0,0,0,2.2,1.13,5.22,5.22,0,0,0,1.21.35H1248a17.75,17.75,0,0,1,6,1.21,18.81,18.81,0,0,1,6.24,3.84,22.49,22.49,0,0,1,4.81,6.36,19.13,19.13,0,0,1,2,8.88v12a19.5,19.5,0,0,1-2,9.07,21.22,21.22,0,0,1-4.84,6.29,19.67,19.67,0,0,1-6.21,3.73,18,18,0,0,1-6,1.2H1168.3v-19.78h73.09a5.51,5.51,0,0,0,1.22-.42,9.61,9.61,0,0,0,2.23-1.4,9.74,9.74,0,0,0,2-2.27,4.88,4.88,0,0,0,.73-2.68v-.74a3.53,3.53,0,0,0-.61-2.12,6.9,6.9,0,0,0-1.74-1.71,9.63,9.63,0,0,0-2.14-1.1c-.54-.19-1.09-.39-1.64-.54ZM132.14,1341.75v29.63a4.88,4.88,0,0,0,.73,2.68,10.17,10.17,0,0,0,1.95,2.29,8,8,0,0,0,2.17,1.37,6.51,6.51,0,0,0,1.29.43H185.9a5.34,5.34,0,0,0,1.22-.42,9.33,9.33,0,0,0,2.23-1.41,9.5,9.5,0,0,0,2-2.26,4.88,4.88,0,0,0,.73-2.68v-29.63a4.83,4.83,0,0,0-.73-2.68,9.54,9.54,0,0,0-2-2.27,10,10,0,0,0-2.23-1.41,5.49,5.49,0,0,0-1.2-.41H138.3a6.24,6.24,0,0,0-1.31.42,8.24,8.24,0,0,0-2.17,1.38,10.17,10.17,0,0,0-1.95,2.29,4.83,4.83,0,0,0-.73,2.68Zm625.54,0v29.63a4.88,4.88,0,0,0,.73,2.68,10.43,10.43,0,0,0,2,2.29,8,8,0,0,0,2.18,1.37,6.22,6.22,0,0,0,1.28.43h47.62a5.59,5.59,0,0,0,1.23-.42,9.07,9.07,0,0,0,2.22-1.41,9.54,9.54,0,0,0,2-2.26,5,5,0,0,0,.73-2.68v-29.63a4.91,4.91,0,0,0-.73-2.68,9.59,9.59,0,0,0-2-2.27,9.71,9.71,0,0,0-2.22-1.41,5.76,5.76,0,0,0-1.21-.41H763.84a6,6,0,0,0-1.3.42,8.29,8.29,0,0,0-2.18,1.38,10.43,10.43,0,0,0-2,2.29,4.83,4.83,0,0,0-.73,2.68Zm215,0v29.63a4.88,4.88,0,0,0,.73,2.68,10.21,10.21,0,0,0,2,2.29,7.81,7.81,0,0,0,2.17,1.37,6.22,6.22,0,0,0,1.28.43h47.63a5.51,5.51,0,0,0,1.22-.42,9.34,9.34,0,0,0,2.22-1.4,9.78,9.78,0,0,0,2-2.27,4.88,4.88,0,0,0,.73-2.68v-29.63a4.83,4.83,0,0,0-.73-2.68,9.59,9.59,0,0,0-2-2.27,9.71,9.71,0,0,0-2.22-1.41,5.57,5.57,0,0,0-1.21-.41H978.87a6,6,0,0,0-1.3.42,8.08,8.08,0,0,0-2.17,1.38,10.21,10.21,0,0,0-2,2.29A4.83,4.83,0,0,0,972.71,1341.75Z"/><text class="cls-7" transform="translate(0 1476.8)"><tspan class="cls-8">Electri</tspan><tspan x="464.61" y="0">c </tspan><tspan class="cls-8" x="516.68" y="0">Motorcycle</tspan><tspan class="cls-9" x="1238.34" y="0">s</tspan></text></g></g></svg>